<svg id="svg" version="1.1" xmlns="http://www.w3.org/2000/svg" xmlns:xlink="http://www.w3.org/1999/xlink" width="400" height="400" viewBox="0, 0, 400,400"><g id="svgg"><path id="path0" d="M197.656 94.783 C 196.256 95.047,192.750 96.783,192.146 97.511 C 191.864 97.850,191.214 98.288,190.701 98.483 C 190.188 98.678,189.677 99.187,189.565 99.614 C 189.453 100.041,189.227 100.391,189.063 100.391 C 188.898 100.391,188.296 101.313,187.725 102.441 C 187.154 103.569,186.540 104.756,186.360 105.078 C 186.180 105.400,181.144 115.460,175.170 127.434 C 162.678 152.468,162.417 152.880,157.227 155.737 C 155.218 156.843,156.942 156.555,126.367 160.889 C 97.389 164.996,98.001 164.856,94.176 168.244 C 91.022 171.036,90.113 173.157,89.942 178.125 C 89.837 181.146,89.912 182.072,90.224 181.641 C 90.557 181.181,90.599 181.272,90.416 182.064 C 89.900 184.296,92.293 187.155,105.141 199.659 C 120.959 215.054,126.951 221.011,130.236 224.609 L 132.910 227.539 130.431 224.414 C 129.067 222.695,124.401 217.686,120.061 213.281 C 115.721 208.877,111.829 204.878,111.411 204.395 C 110.993 203.911,110.276 203.516,109.817 203.516 C 109.359 203.516,108.984 203.384,108.983 203.223 C 108.982 203.062,107.669 201.567,106.066 199.902 L 103.150 196.875 113.488 196.875 L 123.826 196.875 128.177 201.172 C 130.571 203.535,132.789 205.469,133.107 205.469 C 134.507 205.469,139.059 210.660,139.101 212.305 L 139.141 213.867 139.488 212.392 C 139.848 210.867,138.077 208.741,133.073 204.688 C 132.409 204.150,129.926 201.858,127.555 199.593 C 119.118 191.537,118.095 190.629,117.776 190.918 C 117.598 191.079,117.565 191.015,117.702 190.775 C 118.003 190.247,116.660 188.939,116.244 189.355 C 116.083 189.516,116.009 189.385,116.081 189.063 C 116.152 188.740,115.991 188.521,115.723 188.574 C 115.454 188.628,115.278 188.452,115.332 188.184 C 115.386 187.915,115.197 187.744,114.912 187.803 C 114.628 187.862,114.494 187.749,114.615 187.553 C 114.737 187.357,113.607 186.038,112.105 184.621 C 107.074 179.874,107.897 179.088,119.531 177.535 C 123.721 176.976,128.115 176.361,129.297 176.170 C 130.479 175.979,132.852 175.627,134.570 175.388 C 136.289 175.149,138.750 174.800,140.039 174.612 C 141.328 174.425,143.965 174.068,145.898 173.819 C 147.832 173.571,150.908 173.106,152.734 172.787 C 154.561 172.468,156.718 172.109,157.529 171.988 C 158.340 171.868,159.097 171.618,159.212 171.432 C 159.327 171.246,159.738 171.094,160.125 171.094 C 161.534 171.094,168.638 167.052,171.423 164.666 C 172.474 163.766,176.953 158.391,176.953 158.031 C 176.953 157.902,177.366 157.141,177.870 156.340 C 179.136 154.329,181.190 150.261,186.692 138.867 C 189.286 133.496,191.585 128.838,191.800 128.516 C 192.016 128.193,192.391 127.490,192.633 126.953 C 196.747 117.817,198.782 114.453,200.195 114.453 C 201.650 114.453,202.477 115.857,209.746 130.664 C 223.663 159.015,223.864 159.375,227.965 163.451 C 231.849 167.312,238.300 171.062,242.402 171.843 C 243.466 172.046,244.600 172.308,244.922 172.426 C 245.442 172.617,249.574 173.210,257.422 174.222 C 258.818 174.402,261.807 174.819,264.063 175.149 C 266.318 175.480,269.482 175.932,271.094 176.154 C 272.705 176.377,276.484 176.919,279.492 177.360 C 282.500 177.801,285.840 178.265,286.914 178.391 C 291.233 178.900,292.175 180.741,289.469 183.383 C 288.619 184.213,288.017 185.044,288.131 185.229 C 288.246 185.415,288.107 185.518,287.822 185.459 C 287.537 185.400,287.353 185.584,287.412 185.869 C 287.471 186.153,287.351 186.282,287.144 186.154 C 286.655 185.852,284.680 187.827,284.983 188.316 C 285.110 188.522,284.982 188.643,284.697 188.584 C 284.412 188.525,284.224 188.696,284.277 188.965 C 284.331 189.233,284.155 189.409,283.887 189.355 C 283.618 189.302,283.442 189.478,283.496 189.746 C 283.550 190.015,283.443 190.190,283.258 190.137 C 282.930 190.041,280.761 192.013,272.025 200.349 C 269.636 202.628,267.329 204.756,266.897 205.078 C 263.223 207.818,260.746 210.763,260.984 212.109 L 261.225 213.477 261.277 212.154 C 261.334 210.674,264.904 206.563,266.880 205.701 C 267.462 205.447,269.923 203.346,272.348 201.031 L 276.758 196.823 286.816 196.842 C 292.349 196.852,296.941 196.864,297.021 196.868 C 297.408 196.887,289.977 204.297,289.572 204.297 C 288.970 204.297,285.568 207.854,285.556 208.496 C 285.551 208.765,285.312 208.984,285.025 208.984 C 283.794 208.984,268.752 225.136,267.199 228.125 C 266.515 229.441,266.806 229.129,268.839 226.367 C 270.905 223.562,278.797 215.563,295.016 199.839 C 301.621 193.435,306.911 188.013,306.772 187.788 C 306.634 187.563,306.701 187.491,306.923 187.629 C 307.145 187.766,307.755 187.222,308.279 186.419 C 313.835 177.914,309.295 167.021,299.219 164.682 C 298.447 164.503,267.866 160.094,251.367 157.783 C 249.648 157.542,247.838 157.187,247.345 156.993 C 246.851 156.799,246.051 156.641,245.566 156.641 C 245.081 156.641,243.815 156.093,242.752 155.425 C 237.849 152.338,236.125 150.240,233.005 143.555 C 232.002 141.406,227.813 132.876,223.696 124.599 C 219.579 116.321,216.035 109.189,215.820 108.748 C 214.875 106.809,214.501 106.017,214.274 105.469 C 213.647 103.953,212.748 102.804,210.104 100.142 C 208.532 98.560,207.044 97.266,206.796 97.266 C 206.548 97.266,206.130 97.006,205.866 96.688 C 204.685 95.265,200.387 94.268,197.656 94.783 M261.421 214.453 C 261.421 214.990,261.555 215.957,261.719 216.602 C 261.985 217.647,262.017 217.668,262.017 216.797 C 262.017 216.260,261.883 215.293,261.719 214.648 C 261.453 213.603,261.421 213.582,261.421 214.453 M138.494 215.838 C 138.345 216.834,138.303 217.730,138.400 217.827 C 138.498 217.925,138.700 217.190,138.849 216.193 C 138.999 215.197,139.041 214.302,138.944 214.204 C 138.846 214.106,138.644 214.842,138.494 215.838 M137.713 220.135 C 137.564 221.131,137.521 222.027,137.619 222.124 C 137.717 222.222,137.919 221.486,138.068 220.490 C 138.218 219.494,138.260 218.598,138.162 218.501 C 138.065 218.403,137.862 219.139,137.713 220.135 M136.914 224.609 C 136.764 225.498,136.723 226.306,136.823 226.407 C 136.923 226.507,137.122 225.856,137.266 224.961 C 137.409 224.066,137.450 223.257,137.356 223.164 C 137.263 223.070,137.064 223.721,136.914 224.609 M265.384 232.284 C 265.114 233.681,265.073 233.719,264.812 232.813 C 264.585 232.025,264.525 231.987,264.498 232.617 C 264.423 234.389,265.161 234.536,265.618 232.840 C 265.865 231.922,265.979 231.083,265.871 230.975 C 265.763 230.868,265.544 231.457,265.384 232.284 M134.390 231.908 C 134.367 232.603,135.150 234.511,135.368 234.293 C 135.473 234.188,135.299 233.505,134.982 232.774 C 134.665 232.043,134.399 231.654,134.390 231.908 " stroke="none" fill="#8d4397" fill-rule="evenodd"></path><path id="path1" d="M161.981 183.462 C 161.839 183.604,160.265 183.836,158.483 183.978 C 156.702 184.119,154.653 184.530,153.929 184.891 C 153.206 185.252,152.288 185.547,151.889 185.547 C 151.491 185.547,150.863 185.898,150.495 186.328 C 150.127 186.758,149.608 187.109,149.341 187.109 C 148.762 187.109,145.727 190.245,145.713 190.857 C 145.708 191.093,145.367 191.589,144.957 191.961 C 144.074 192.760,143.339 195.687,141.961 203.906 C 141.318 207.738,140.735 210.126,140.372 210.411 C 139.643 210.984,136.146 229.710,135.351 237.305 C 135.036 240.313,134.615 243.652,134.415 244.727 C 134.215 245.801,133.869 247.734,133.647 249.023 C 133.424 250.312,133.049 252.422,132.813 253.711 C 132.576 255.000,132.216 257.065,132.012 258.301 C 131.808 259.536,131.465 261.602,131.250 262.891 C 131.035 264.180,130.695 266.245,130.495 267.480 C 130.294 268.716,129.775 271.748,129.340 274.219 C 126.894 288.140,126.642 290.036,126.953 292.188 C 128.290 301.413,133.850 306.420,141.881 305.629 C 144.596 305.361,158.024 299.190,162.388 296.204 C 162.987 295.794,165.234 294.592,167.383 293.533 C 175.801 289.384,177.978 284.919,175.351 277.195 C 173.774 272.560,174.008 272.673,170.245 274.721 C 168.456 275.695,164.268 277.852,160.938 279.513 C 157.607 281.175,154.795 282.643,154.688 282.776 C 154.097 283.506,143.998 288.310,143.476 288.110 C 142.821 287.858,142.923 284.666,143.709 280.859 C 143.909 279.893,144.182 278.398,144.317 277.539 C 144.451 276.680,144.723 275.098,144.921 274.023 C 145.963 268.383,146.870 263.159,147.261 260.547 C 147.502 258.936,147.858 256.738,148.051 255.664 C 148.244 254.590,148.598 252.568,148.838 251.172 C 149.078 249.775,149.358 248.281,149.462 247.852 C 149.565 247.422,149.831 245.928,150.051 244.531 C 150.912 239.091,151.689 234.566,152.366 231.055 C 152.998 227.777,153.482 224.766,153.764 222.356 C 153.896 221.224,154.158 220.203,154.346 220.087 C 154.534 219.971,154.688 218.930,154.688 217.773 C 154.688 216.617,154.863 215.562,155.078 215.430 C 155.293 215.297,155.469 214.267,155.469 213.141 C 155.469 212.015,155.627 210.927,155.822 210.723 C 156.153 210.374,156.345 209.243,156.882 204.492 C 157.004 203.418,157.263 202.372,157.458 202.168 C 157.653 201.964,157.813 201.405,157.813 200.927 C 157.813 199.466,161.721 198.133,163.091 199.127 C 163.519 199.437,164.639 201.719,165.964 204.980 C 167.431 208.593,168.433 211.087,169.141 212.891 C 170.403 216.107,172.257 220.565,174.827 226.563 C 175.693 228.583,177.247 232.328,178.879 236.328 C 180.591 240.525,181.415 242.493,182.148 244.141 C 182.578 245.107,183.238 246.689,183.613 247.656 C 184.473 249.870,187.825 258.137,188.286 259.180 C 188.475 259.609,189.065 261.104,189.596 262.500 C 190.127 263.896,191.005 266.182,191.547 267.578 C 192.089 268.975,192.961 271.260,193.484 272.656 C 195.653 278.444,196.694 279.749,199.608 280.332 C 200.947 280.600,203.841 279.092,204.753 277.653 C 205.535 276.416,209.606 266.208,210.162 264.086 C 210.555 262.589,213.869 254.105,215.436 250.586 C 215.930 249.477,218.864 242.422,220.960 237.305 C 221.488 236.016,222.253 234.170,222.661 233.203 C 223.068 232.236,223.945 230.127,224.609 228.516 C 225.274 226.904,226.182 224.707,226.627 223.633 C 227.071 222.559,227.754 220.889,228.143 219.922 C 228.533 218.955,229.410 216.846,230.092 215.234 C 230.774 213.623,231.650 211.514,232.038 210.547 C 236.153 200.304,235.955 200.749,236.867 199.707 C 237.778 198.666,239.559 198.551,241.302 199.421 C 242.609 200.073,242.885 200.675,243.402 204.004 C 243.593 205.239,243.926 207.305,244.141 208.594 C 244.355 209.883,244.707 211.992,244.922 213.281 C 245.137 214.570,245.479 216.636,245.683 217.871 C 245.886 219.106,246.231 221.084,246.448 222.266 C 246.666 223.447,247.033 225.557,247.264 226.953 C 248.228 232.784,248.419 233.899,248.831 236.133 C 249.070 237.422,249.432 239.531,249.636 240.820 C 249.840 242.109,250.167 244.043,250.361 245.117 C 250.555 246.191,250.912 248.213,251.154 249.609 C 251.396 251.006,251.762 253.115,251.968 254.297 C 252.173 255.479,252.520 257.500,252.737 258.789 C 253.402 262.731,253.757 264.766,255.055 272.070 C 258.280 290.225,258.398 289.453,252.842 286.592 C 250.957 285.621,248.271 284.242,246.875 283.529 C 245.479 282.815,244.248 282.138,244.141 282.024 C 244.033 281.910,241.924 280.786,239.453 279.527 C 236.982 278.267,233.148 276.277,230.931 275.103 C 228.715 273.929,226.840 273.030,226.765 273.105 C 226.531 273.339,224.946 277.450,224.378 279.297 C 222.496 285.410,225.220 289.481,234.375 294.238 C 237.275 295.745,240.615 297.504,241.797 298.147 C 255.915 305.830,259.473 306.816,265.257 304.647 C 272.401 301.967,274.818 295.797,272.893 285.156 C 272.329 282.041,270.899 273.779,269.716 266.797 C 267.085 251.280,266.098 245.674,265.576 243.290 C 265.357 242.285,265.030 239.385,264.850 236.845 C 264.671 234.305,264.169 230.293,263.734 227.930 C 263.299 225.566,262.462 220.820,261.872 217.383 C 261.123 213.012,260.602 210.957,260.138 210.547 C 259.772 210.225,259.371 209.346,259.246 208.594 C 257.290 196.858,256.284 192.635,255.233 191.763 C 254.933 191.514,254.686 191.112,254.684 190.870 C 254.668 188.746,247.087 184.488,242.277 183.901 C 240.616 183.699,238.485 183.439,237.541 183.324 C 235.922 183.127,233.065 183.731,232.246 184.443 C 232.042 184.620,231.486 184.766,231.011 184.766 C 230.527 184.766,229.705 185.292,229.140 185.963 C 228.586 186.621,227.963 187.055,227.755 186.927 C 227.548 186.799,227.070 187.183,226.694 187.781 C 226.319 188.378,225.522 189.442,224.925 190.144 C 224.328 190.846,223.725 191.901,223.585 192.488 C 223.446 193.075,223.101 193.994,222.820 194.531 C 222.538 195.068,222.022 196.211,221.672 197.070 C 221.322 197.930,220.796 199.160,220.503 199.805 C 220.209 200.449,219.594 201.855,219.136 202.930 C 218.678 204.004,218.052 205.437,217.745 206.114 C 217.438 206.791,217.188 207.467,217.188 207.617 C 217.188 207.767,216.939 208.444,216.636 209.121 C 215.172 212.385,213.083 217.227,210.372 223.633 C 208.736 227.500,207.134 231.251,206.813 231.969 C 206.492 232.686,205.620 234.832,204.876 236.736 C 200.778 247.224,200.134 247.725,197.866 242.188 C 197.294 240.791,196.574 239.095,196.265 238.418 C 195.956 237.741,195.703 237.070,195.703 236.928 C 195.703 236.785,195.242 235.669,194.679 234.448 C 194.116 233.226,193.347 231.348,192.969 230.273 C 192.592 229.199,191.734 227.129,191.063 225.674 C 190.393 224.218,189.844 222.933,189.844 222.817 C 189.844 222.702,189.423 221.695,188.909 220.581 C 188.395 219.466,187.490 217.412,186.898 216.016 C 186.306 214.619,185.439 212.598,184.971 211.523 C 184.504 210.449,183.798 208.779,183.403 207.813 C 183.007 206.846,182.098 204.765,181.381 203.188 C 180.664 201.611,180.078 200.192,180.078 200.034 C 180.078 199.877,179.551 198.659,178.906 197.329 C 178.262 195.998,177.734 194.729,177.734 194.509 C 177.734 193.982,176.406 191.395,175.290 189.751 C 173.546 187.181,172.729 186.328,172.010 186.328 C 171.610 186.328,171.062 185.977,170.794 185.547 C 170.525 185.117,169.897 184.766,169.398 184.766 C 168.898 184.766,168.369 184.645,168.222 184.498 C 167.303 183.579,162.638 182.805,161.981 183.462 " stroke="none" fill="#f3722b" fill-rule="evenodd"></path><path id="path2" d="M272.307 201.067 C 269.813 203.479,267.533 205.457,267.240 205.461 C 266.324 205.474,261.330 210.658,261.329 211.596 C 261.328 212.734,264.818 233.307,265.052 233.541 C 265.152 233.642,265.234 233.404,265.234 233.013 C 265.234 231.684,267.616 227.254,269.832 224.462 C 272.696 220.853,284.346 208.984,285.025 208.984 C 285.312 208.984,285.551 208.765,285.556 208.496 C 285.568 207.854,288.970 204.297,289.572 204.297 C 289.914 204.297,297.418 196.910,297.119 196.868 C 297.092 196.865,292.518 196.821,286.955 196.771 L 276.840 196.680 272.307 201.067 M106.066 199.902 C 107.669 201.567,108.982 203.062,108.983 203.223 C 108.984 203.384,109.359 203.516,109.817 203.516 C 110.276 203.516,110.993 203.911,111.411 204.395 C 111.829 204.878,115.721 208.877,120.061 213.281 C 130.883 224.264,133.129 227.149,134.751 232.155 C 135.383 234.104,135.365 234.143,136.279 228.706 C 136.711 226.130,137.434 222.002,137.884 219.531 C 138.334 217.061,138.808 214.118,138.937 212.991 L 139.171 210.944 136.871 208.553 C 135.605 207.238,134.028 205.928,133.366 205.642 C 132.703 205.356,130.287 203.266,127.997 200.998 L 123.834 196.875 113.492 196.875 L 103.150 196.875 106.066 199.902 " stroke="none" fill="#723178" fill-rule="evenodd"></path><path id="path3" d="M198.047 94.037 C 196.495 94.197,192.900 95.821,192.180 96.689 C 191.917 97.006,191.492 97.266,191.236 97.266 C 190.274 97.266,185.156 104.759,185.156 106.168 C 185.156 106.760,163.907 148.747,163.257 149.439 C 162.841 149.883,162.500 150.438,162.500 150.674 C 162.500 151.050,161.942 151.581,159.349 153.673 C 158.278 154.537,155.704 155.794,154.492 156.046 C 149.641 157.052,148.685 157.212,141.602 158.203 C 140.313 158.383,137.983 158.721,136.426 158.953 C 134.868 159.185,132.319 159.557,130.762 159.779 C 129.204 160.001,126.787 160.351,125.391 160.557 C 123.994 160.763,121.533 161.121,119.922 161.353 C 118.311 161.584,115.850 161.942,114.453 162.147 C 109.395 162.891,106.591 163.288,104.004 163.625 C 91.772 165.221,85.686 175.227,90.860 185.233 C 92.045 187.524,100.133 196.290,102.295 197.626 C 103.734 198.515,131.928 227.077,132.465 228.189 C 134.087 231.552,134.329 232.457,134.743 236.719 L 135.027 239.648 135.092 237.155 C 135.168 234.201,134.710 232.217,133.118 228.615 C 132.269 226.694,126.490 220.356,119.463 213.639 C 103.435 198.318,92.860 187.633,91.469 185.352 C 88.342 180.226,89.597 172.298,94.176 168.244 C 98.001 164.856,97.389 164.996,126.367 160.889 C 156.942 156.555,155.218 156.843,157.227 155.737 C 162.417 152.880,162.678 152.468,175.170 127.434 C 181.144 115.460,186.180 105.400,186.360 105.078 C 186.540 104.756,187.154 103.569,187.725 102.441 C 188.296 101.313,188.898 100.391,189.063 100.391 C 189.227 100.391,189.453 100.041,189.565 99.614 C 189.677 99.187,190.188 98.678,190.701 98.483 C 191.214 98.288,191.864 97.850,192.146 97.511 C 194.786 94.330,203.469 93.800,205.853 96.672 C 206.124 96.999,206.548 97.266,206.796 97.266 C 207.044 97.266,208.532 98.560,210.104 100.142 C 212.748 102.804,213.647 103.953,214.274 105.469 C 214.501 106.017,214.875 106.809,215.820 108.748 C 216.035 109.189,219.579 116.321,223.696 124.599 C 227.813 132.876,232.002 141.406,233.005 143.555 C 236.125 150.240,237.849 152.338,242.752 155.425 C 243.815 156.093,245.081 156.641,245.566 156.641 C 246.051 156.641,246.851 156.799,247.345 156.993 C 247.838 157.187,249.648 157.542,251.367 157.783 C 289.788 163.164,299.561 164.643,301.172 165.318 C 307.851 168.118,310.726 172.306,310.470 178.860 C 310.216 185.372,312.335 182.884,280.170 214.453 C 266.726 227.648,265.151 230.068,265.305 237.305 L 265.371 240.430 265.639 236.914 C 266.239 229.020,265.609 229.838,289.330 206.189 C 312.041 183.547,310.921 184.956,311.228 178.652 C 311.357 176.018,311.244 175.178,310.574 173.793 C 310.130 172.872,309.766 171.913,309.766 171.661 C 309.766 168.748,302.547 164.497,296.094 163.610 C 294.697 163.418,292.368 163.090,290.918 162.880 C 289.468 162.671,287.095 162.329,285.645 162.120 C 284.194 161.910,281.865 161.571,280.469 161.366 C 279.072 161.160,276.611 160.806,275.000 160.579 C 273.389 160.351,271.455 160.072,270.703 159.958 C 269.074 159.711,265.106 159.133,261.328 158.594 C 238.176 155.286,240.521 157.297,226.331 128.582 C 221.057 117.911,216.100 107.861,215.316 106.250 C 211.611 98.639,204.209 93.405,198.047 94.037 M198.577 115.332 C 197.943 116.049,194.603 122.578,192.633 126.953 C 192.391 127.490,192.016 128.193,191.800 128.516 C 191.585 128.838,189.286 133.496,186.692 138.867 C 181.190 150.261,179.136 154.329,177.870 156.340 C 177.366 157.141,176.953 157.902,176.953 158.031 C 176.953 160.723,163.593 171.094,160.125 171.094 C 159.738 171.094,159.327 171.246,159.212 171.432 C 159.097 171.618,158.340 171.868,157.529 171.988 C 156.718 172.109,154.561 172.468,152.734 172.787 C 150.908 173.106,147.832 173.571,145.898 173.819 C 143.965 174.068,141.328 174.425,140.039 174.612 C 138.750 174.800,136.289 175.149,134.570 175.388 C 132.852 175.627,130.479 175.979,129.297 176.170 C 128.115 176.361,123.721 176.976,119.531 177.535 C 106.614 179.260,106.592 179.335,116.211 188.674 C 138.257 210.079,140.106 211.567,140.718 208.398 C 141.095 206.451,141.800 202.205,142.048 200.391 C 143.245 191.641,146.783 186.639,153.320 184.455 C 156.876 183.266,166.777 182.636,167.681 183.540 C 167.925 183.784,168.444 183.984,168.833 183.984 C 169.632 183.984,170.872 184.629,172.026 185.645 C 172.454 186.021,172.917 186.328,173.055 186.328 C 173.839 186.328,178.516 193.957,178.516 195.236 C 178.516 195.397,179.037 196.578,179.675 197.862 C 180.313 199.145,180.840 200.384,180.847 200.614 C 180.854 200.845,181.387 202.122,182.031 203.453 C 182.676 204.783,183.203 206.098,183.203 206.373 C 183.203 206.649,183.351 207.042,183.531 207.246 C 183.712 207.450,184.094 208.232,184.381 208.984 C 184.668 209.736,185.400 211.455,186.006 212.803 C 186.613 214.151,187.109 215.339,187.109 215.444 C 187.109 215.548,187.481 216.467,187.936 217.485 C 189.218 220.356,189.723 221.537,190.479 223.438 C 191.381 225.705,192.543 228.024,192.563 227.598 C 192.571 227.416,192.297 226.625,191.952 225.840 C 191.608 225.056,191.187 224.063,191.016 223.633 C 190.845 223.203,190.423 222.192,190.079 221.387 C 189.735 220.581,189.210 219.351,188.913 218.652 C 188.615 217.954,188.000 216.550,187.545 215.532 C 187.091 214.513,186.719 213.589,186.719 213.477 C 186.719 213.364,186.347 212.440,185.892 211.422 C 184.899 209.197,184.576 208.449,182.262 203.010 C 181.276 200.691,180.469 198.711,180.469 198.611 C 180.469 198.322,178.962 194.971,177.493 191.992 C 176.009 188.985,172.074 184.369,170.996 184.373 C 170.620 184.374,170.313 184.199,170.313 183.984 C 170.313 183.770,169.908 183.594,169.414 183.594 C 168.920 183.594,168.305 183.383,168.048 183.126 C 167.469 182.547,158.142 182.609,157.040 183.199 C 156.634 183.416,155.848 183.594,155.293 183.594 C 154.018 183.594,151.172 184.469,151.172 184.861 C 151.172 185.023,150.840 185.156,150.435 185.156 C 147.363 185.156,142.727 192.783,141.768 199.414 C 140.653 207.129,140.150 209.468,139.566 209.663 C 138.750 209.935,109.785 181.979,109.921 181.051 C 110.074 180.014,111.005 179.389,112.799 179.121 C 114.991 178.795,118.746 178.246,122.266 177.738 C 125.506 177.270,129.961 176.618,133.203 176.137 C 140.642 175.034,145.813 174.360,149.609 173.998 C 150.791 173.885,152.109 173.635,152.539 173.442 C 152.969 173.249,154.023 173.000,154.883 172.889 C 157.988 172.486,159.386 172.173,159.597 171.832 C 159.715 171.641,160.133 171.484,160.525 171.484 C 161.305 171.484,167.199 168.526,169.236 167.113 C 172.081 165.139,176.068 160.783,177.569 158.008 C 178.353 156.559,181.113 151.374,181.519 150.586 C 181.741 150.156,184.415 144.795,187.461 138.672 C 190.508 132.549,193.147 127.275,193.326 126.953 C 193.505 126.631,194.244 125.049,194.967 123.438 C 199.445 113.466,200.516 112.728,202.986 117.911 C 203.564 119.125,206.228 124.600,208.905 130.078 C 211.582 135.557,214.807 142.236,216.071 144.922 C 217.335 147.607,218.537 150.068,218.742 150.391 C 218.947 150.713,219.624 151.943,220.247 153.125 C 222.084 156.608,222.951 158.083,224.396 160.183 C 226.046 162.582,229.281 166.016,229.891 166.016 C 230.134 166.016,230.753 166.463,231.266 167.009 C 232.638 168.470,239.976 171.999,242.578 172.449 C 243.330 172.579,244.824 172.866,245.898 173.086 C 246.973 173.306,249.170 173.654,250.781 173.859 C 256.895 174.637,259.258 174.968,261.719 175.391 C 263.115 175.631,265.576 175.987,267.188 176.182 C 270.571 176.592,274.579 177.168,283.496 178.527 C 284.946 178.748,286.888 179.030,287.811 179.153 C 289.017 179.315,289.668 179.652,290.126 180.351 L 290.763 181.323 283.174 188.814 C 268.706 203.094,261.335 209.867,260.771 209.399 C 260.201 208.926,259.945 207.807,258.796 200.781 C 258.340 197.991,257.722 195.094,257.421 194.336 C 256.358 191.656,255.608 190.270,254.570 189.063 C 252.880 187.098,249.170 184.384,248.168 184.379 C 247.697 184.377,247.203 184.199,247.070 183.984 C 246.938 183.770,246.212 183.594,245.459 183.594 C 244.706 183.594,243.757 183.416,243.351 183.199 C 242.343 182.659,233.209 182.564,232.227 183.083 C 231.797 183.310,230.654 183.890,229.688 184.373 C 228.721 184.855,227.086 186.151,226.055 187.254 C 224.093 189.352,223.405 190.622,220.475 197.559 C 220.135 198.364,219.695 199.329,219.498 199.702 C 219.302 200.075,219.141 200.550,219.141 200.758 C 219.141 200.967,218.594 202.331,217.926 203.791 C 217.259 205.251,216.573 206.797,216.403 207.227 C 216.233 207.656,215.724 208.841,215.273 209.859 C 214.822 210.877,214.453 211.802,214.453 211.914 C 214.453 212.026,214.084 212.951,213.633 213.969 C 213.182 214.987,212.677 216.172,212.511 216.602 C 212.344 217.031,211.812 218.262,211.328 219.336 C 210.844 220.410,210.294 221.685,210.107 222.168 C 209.086 224.798,207.999 227.363,207.184 229.064 C 206.885 229.688,206.641 230.343,206.641 230.519 C 206.641 230.695,206.113 231.991,205.469 233.398 C 204.824 234.806,204.297 236.042,204.297 236.147 C 204.297 236.251,203.969 237.082,203.568 237.993 C 203.166 238.903,202.383 240.703,201.826 241.992 C 200.276 245.582,199.839 245.173,196.639 237.132 C 196.259 236.177,195.886 235.585,195.809 235.815 C 195.732 236.046,196.179 237.354,196.803 238.723 C 197.427 240.091,198.177 241.881,198.470 242.700 C 199.541 245.694,200.661 245.599,202.128 242.391 C 202.676 241.192,203.125 240.133,203.125 240.037 C 203.125 239.942,203.652 238.712,204.297 237.305 C 204.941 235.897,205.469 234.522,205.469 234.248 C 205.469 233.974,205.618 233.583,205.801 233.379 C 205.983 233.175,206.437 232.217,206.809 231.250 C 207.181 230.283,207.753 228.877,208.080 228.125 C 208.406 227.373,208.814 226.406,208.985 225.977 C 209.157 225.547,209.666 224.362,210.117 223.344 C 210.568 222.326,210.938 221.401,210.938 221.289 C 210.938 221.177,211.310 220.252,211.764 219.234 C 212.219 218.216,212.834 216.812,213.131 216.113 C 213.429 215.415,213.953 214.185,214.298 213.379 C 214.642 212.573,215.063 211.563,215.234 211.133 C 215.792 209.731,216.870 207.251,217.425 206.092 C 217.724 205.469,217.969 204.812,217.969 204.634 C 217.969 204.455,218.496 203.221,219.141 201.890 C 219.785 200.560,220.313 199.244,220.313 198.966 C 220.313 198.688,220.631 197.885,221.020 197.180 C 221.409 196.475,222.143 194.844,222.651 193.555 C 224.494 188.881,229.039 183.984,231.535 183.984 C 231.937 183.984,232.466 183.784,232.712 183.538 C 233.589 182.661,243.568 183.242,246.680 184.352 C 252.800 186.535,256.607 191.097,257.784 197.656 C 258.034 199.053,258.400 201.074,258.597 202.148 C 258.794 203.223,259.051 204.717,259.167 205.469 C 260.037 211.055,260.343 211.155,264.573 207.227 C 266.192 205.723,268.102 203.997,268.817 203.391 C 274.431 198.635,291.016 181.827,291.016 180.893 C 291.016 179.580,289.582 178.706,286.914 178.391 C 285.840 178.265,282.500 177.801,279.492 177.360 C 276.484 176.919,272.705 176.377,271.094 176.154 C 269.482 175.932,266.318 175.480,264.063 175.149 C 261.807 174.819,258.818 174.402,257.422 174.222 C 249.574 173.210,245.442 172.617,244.922 172.426 C 244.600 172.308,243.466 172.046,242.402 171.843 C 238.300 171.062,231.849 167.312,227.965 163.451 C 223.864 159.375,223.663 159.015,209.746 130.664 C 202.477 115.857,201.650 114.453,200.195 114.453 C 199.733 114.453,199.005 114.849,198.577 115.332 M159.766 199.716 C 158.505 200.343,157.562 202.375,157.279 205.078 C 157.099 206.796,157.136 207.031,157.464 206.250 C 157.690 205.713,157.929 204.515,157.995 203.587 C 158.277 199.650,162.552 198.562,163.817 202.107 C 163.962 202.513,164.178 202.749,164.296 202.631 C 165.664 201.263,161.737 198.736,159.766 199.716 M238.058 199.596 C 237.080 199.992,236.237 201.227,235.515 203.320 C 235.219 204.180,234.666 205.459,234.285 206.164 C 233.905 206.869,233.594 207.618,233.594 207.829 C 233.594 208.039,233.225 209.045,232.774 210.063 C 232.322 211.081,231.820 212.266,231.657 212.695 C 231.494 213.125,230.984 214.240,230.524 215.174 C 230.064 216.107,229.688 217.032,229.688 217.229 C 229.688 217.426,229.356 218.332,228.951 219.243 C 228.546 220.153,227.295 223.096,226.172 225.781 C 225.049 228.467,223.798 231.409,223.393 232.320 C 222.988 233.231,222.656 234.061,222.656 234.166 C 222.656 234.270,222.129 235.507,221.484 236.914 C 220.840 238.321,220.313 239.722,220.313 240.026 C 220.313 240.330,220.156 240.675,219.965 240.794 C 219.774 240.912,219.506 241.454,219.369 241.999 C 219.232 242.544,218.667 243.996,218.114 245.226 C 217.560 246.455,216.967 247.813,216.796 248.242 C 216.626 248.672,216.224 249.639,215.904 250.391 C 215.103 252.271,211.570 260.844,210.949 262.415 C 210.670 263.120,210.536 263.791,210.651 263.906 C 210.766 264.021,211.075 263.444,211.338 262.624 C 211.601 261.804,212.233 260.205,212.744 259.070 C 213.254 257.936,213.672 256.924,213.672 256.820 C 213.672 256.717,214.044 255.799,214.499 254.781 C 216.459 250.394,216.797 249.608,216.797 249.431 C 216.797 249.228,219.541 242.633,220.743 239.946 C 221.151 239.035,221.484 238.198,221.484 238.086 C 221.484 237.974,221.856 237.049,222.311 236.031 C 223.709 232.900,224.127 231.914,225.000 229.688 C 225.866 227.478,226.453 226.098,227.824 223.047 C 228.259 222.080,228.745 220.938,228.903 220.508 C 229.062 220.078,229.368 219.287,229.583 218.750 C 229.798 218.213,230.148 217.334,230.361 216.797 C 230.574 216.260,231.125 215.057,231.585 214.123 C 232.045 213.190,232.422 212.259,232.422 212.054 C 232.422 211.849,232.773 210.953,233.203 210.064 C 233.633 209.175,233.984 208.309,233.984 208.140 C 233.984 207.970,234.512 206.681,235.156 205.273 C 235.801 203.866,236.328 202.567,236.328 202.387 C 236.328 201.314,238.024 200.001,239.384 200.022 C 240.945 200.045,242.855 201.841,242.448 202.902 C 242.334 203.198,242.496 204.288,242.808 205.324 C 243.120 206.360,243.296 207.415,243.199 207.668 C 243.102 207.920,243.278 208.975,243.589 210.011 C 243.901 211.048,244.070 212.121,243.964 212.396 C 243.858 212.672,243.952 213.371,244.172 213.950 C 244.392 214.529,244.654 215.714,244.754 216.583 C 244.977 218.522,245.609 221.117,245.662 220.313 C 245.683 219.990,245.341 217.617,244.900 215.039 C 243.751 208.314,243.353 205.874,243.116 204.102 C 242.616 200.370,240.594 198.569,238.058 199.596 M164.473 203.215 C 164.448 203.569,165.467 206.288,166.449 208.492 C 166.855 209.403,167.188 210.239,167.188 210.352 C 167.188 210.464,167.557 211.388,168.008 212.407 C 168.459 213.425,169.007 214.697,169.225 215.234 C 169.444 215.771,169.778 216.516,169.967 216.889 C 170.157 217.262,170.313 217.787,170.313 218.055 C 170.313 218.323,170.819 219.599,171.437 220.892 C 172.902 223.954,173.583 225.506,174.609 228.125 C 175.073 229.307,175.722 230.889,176.053 231.641 C 177.344 234.574,177.703 235.426,178.516 237.500 C 178.979 238.682,179.585 240.176,179.863 240.820 C 180.141 241.465,180.852 243.135,181.442 244.531 C 183.187 248.657,183.564 249.542,184.149 250.879 C 184.455 251.577,185.079 253.101,185.537 254.265 C 185.994 255.430,186.711 257.134,187.130 258.053 C 187.548 258.971,187.891 259.838,187.891 259.978 C 187.891 260.119,188.135 260.787,188.435 261.464 C 188.911 262.541,191.612 269.585,192.336 271.638 C 192.479 272.045,192.682 272.292,192.787 272.187 C 192.892 272.082,192.386 270.519,191.662 268.713 C 190.938 266.907,190.118 264.727,189.840 263.867 C 189.246 262.033,184.167 249.726,183.595 248.736 C 183.379 248.363,183.198 247.835,183.191 247.564 C 183.184 247.292,182.657 246.020,182.019 244.737 C 181.381 243.453,180.859 242.264,180.859 242.096 C 180.859 241.927,180.487 240.955,180.033 239.937 C 178.634 236.806,178.217 235.821,177.344 233.594 C 176.592 231.676,176.166 230.660,174.968 227.930 C 173.675 224.980,171.517 219.784,169.860 215.626 C 168.789 212.941,167.644 210.128,167.315 209.376 C 166.986 208.623,166.577 207.656,166.406 207.227 C 165.702 205.462,164.491 202.949,164.473 203.215 M156.525 208.802 C 156.178 211.037,155.622 214.384,154.715 219.701 C 154.277 222.264,153.983 224.426,154.061 224.504 C 154.255 224.697,154.725 222.766,154.895 221.078 C 154.972 220.318,155.222 219.205,155.450 218.604 C 155.678 218.004,155.764 217.349,155.641 217.150 C 155.517 216.950,155.698 215.816,156.043 214.630 C 156.388 213.444,156.577 212.322,156.463 212.138 C 156.349 211.953,156.493 211.124,156.784 210.295 C 157.074 209.467,157.189 208.443,157.039 208.021 C 156.827 207.422,156.713 207.596,156.525 208.802 M245.569 221.387 C 245.403 221.655,245.379 222.057,245.516 222.280 C 245.654 222.502,245.944 223.776,246.162 225.112 C 246.379 226.447,246.722 228.506,246.924 229.688 C 247.127 230.869,247.456 232.803,247.656 233.984 C 247.857 235.166,248.189 237.100,248.396 238.281 C 248.602 239.463,248.966 241.572,249.204 242.969 C 249.442 244.365,249.794 246.387,249.985 247.461 C 250.177 248.535,250.529 250.557,250.767 251.953 C 251.005 253.350,251.356 255.371,251.548 256.445 C 251.935 258.618,252.580 262.360,253.128 265.625 C 253.327 266.807,253.657 268.740,253.862 269.922 C 254.241 272.106,254.796 275.420,255.433 279.297 C 255.627 280.479,255.876 281.709,255.985 282.031 C 256.095 282.354,256.289 283.628,256.416 284.863 C 256.695 287.567,256.513 287.626,253.262 285.885 C 234.659 275.918,226.540 272.028,226.061 272.852 C 223.638 277.009,222.594 283.291,223.883 285.959 C 226.042 290.427,226.773 291.096,233.203 294.489 C 235.029 295.453,237.578 296.821,238.867 297.528 C 240.156 298.236,241.650 298.994,242.188 299.213 C 242.725 299.431,243.489 299.798,243.886 300.027 C 244.283 300.257,244.684 300.368,244.778 300.274 C 244.871 300.181,244.019 299.645,242.884 299.083 C 227.641 291.545,224.296 288.810,223.555 283.281 C 223.357 281.805,224.671 276.487,225.453 275.605 C 225.633 275.401,225.781 274.952,225.781 274.606 C 225.781 272.441,226.632 272.442,230.699 274.612 C 232.828 275.749,237.822 278.341,241.797 280.373 C 245.771 282.405,249.551 284.385,250.195 284.774 C 252.414 286.110,256.034 287.891,256.532 287.891 C 257.407 287.891,257.296 286.949,254.645 271.875 C 254.210 269.404,253.700 266.416,253.510 265.234 C 253.321 264.053,252.813 261.064,252.381 258.594 C 251.317 252.512,250.340 246.863,248.430 235.742 C 247.544 230.586,246.606 225.137,246.346 223.633 C 246.066 222.018,245.749 221.098,245.569 221.387 M153.516 225.850 C 153.516 226.403,153.425 227.449,153.313 228.174 C 153.166 229.131,153.281 228.969,153.731 227.585 C 154.170 226.233,154.229 225.557,153.933 225.261 C 153.637 224.965,153.516 225.136,153.516 225.850 M192.711 228.516 C 193.113 229.898,195.068 234.603,195.387 234.958 C 195.883 235.509,194.507 231.789,193.438 229.692 C 192.944 228.723,192.617 228.193,192.711 228.516 M151.618 237.240 C 148.453 255.522,145.717 271.725,145.710 272.233 C 145.693 273.553,146.279 272.047,146.576 270.006 C 146.755 268.778,147.066 266.807,147.266 265.625 C 147.467 264.443,147.814 262.334,148.037 260.938 C 148.443 258.397,148.901 255.706,149.581 251.855 C 149.780 250.728,150.132 248.706,150.362 247.363 C 150.941 243.990,151.496 240.821,151.951 238.281 C 152.163 237.100,152.496 235.078,152.692 233.789 C 152.888 232.500,153.165 231.155,153.309 230.801 C 153.452 230.447,153.422 230.066,153.242 229.955 C 153.062 229.844,152.331 233.122,151.618 237.240 M134.267 240.625 C 134.117 241.162,134.010 242.129,134.029 242.773 C 134.060 243.840,134.095 243.806,134.426 242.394 C 134.839 240.631,134.699 239.074,134.267 240.625 M265.699 241.211 C 265.709 241.641,265.852 242.520,266.016 243.164 L 266.314 244.336 266.333 243.164 C 266.343 242.520,266.200 241.641,266.016 241.211 L 265.680 240.430 265.699 241.211 M133.472 245.323 C 133.330 245.854,133.231 246.816,133.251 247.461 C 133.281 248.396,133.359 248.277,133.635 246.875 C 134.013 244.955,133.888 243.767,133.472 245.323 M266.456 245.508 C 266.453 245.938,266.597 246.992,266.774 247.852 L 267.098 249.414 267.115 247.852 C 267.125 246.992,266.982 245.938,266.797 245.508 L 266.461 244.727 266.456 245.508 M132.689 249.759 C 132.542 250.141,132.441 251.099,132.465 251.887 L 132.507 253.320 132.853 251.563 C 133.224 249.678,133.127 248.616,132.689 249.759 M267.356 251.172 C 267.498 252.139,267.767 253.721,267.954 254.688 C 268.140 255.654,268.495 257.676,268.742 259.180 C 269.561 264.163,270.324 267.649,270.111 265.430 C 269.936 263.619,269.754 262.458,268.778 256.934 C 268.579 255.806,268.260 253.788,268.070 252.449 C 267.879 251.110,267.583 249.880,267.411 249.715 C 267.239 249.549,267.214 250.205,267.356 251.172 M131.891 254.379 C 131.759 254.871,131.669 255.889,131.692 256.641 C 131.724 257.748,131.799 257.606,132.082 255.897 C 132.441 253.735,132.320 252.776,131.891 254.379 M131.110 259.067 C 130.978 259.558,130.888 260.576,130.910 261.328 C 130.943 262.435,131.017 262.294,131.301 260.585 C 131.660 258.423,131.539 257.464,131.110 259.067 M130.345 263.431 C 130.198 263.813,130.096 264.683,130.117 265.364 C 130.156 266.569,130.166 266.562,130.517 265.065 C 130.904 263.415,130.785 262.284,130.345 263.431 M210.186 264.844 C 210.118 266.108,205.479 277.185,204.508 278.401 C 202.640 280.743,200.138 281.362,197.815 280.058 C 195.662 278.849,195.368 278.436,193.782 274.414 C 193.358 273.340,193.002 272.647,192.990 272.875 C 192.882 274.985,196.287 280.469,197.706 280.469 C 198.083 280.469,198.500 280.645,198.633 280.859 C 199.816 282.774,204.972 279.823,206.221 276.517 C 206.495 275.790,206.869 274.844,207.051 274.414 C 208.678 270.579,210.572 265.133,210.414 264.742 C 210.282 264.416,210.208 264.449,210.186 264.844 M129.481 268.494 C 129.335 269.468,129.296 270.494,129.394 270.776 C 129.493 271.058,129.705 270.355,129.866 269.213 C 130.027 268.072,130.066 267.045,129.952 266.931 C 129.839 266.818,129.627 267.521,129.481 268.494 M270.552 269.531 C 270.693 270.713,270.873 271.753,270.951 271.842 C 271.296 272.236,271.041 268.495,270.688 267.969 C 270.413 267.560,270.372 268.034,270.552 269.531 M128.791 272.607 C 128.640 273.333,128.535 274.387,128.558 274.951 C 128.587 275.627,128.721 275.378,128.952 274.219 C 129.145 273.252,129.250 272.197,129.185 271.875 C 129.120 271.553,128.943 271.882,128.791 272.607 M167.169 275.469 C 163.634 277.232,160.654 278.778,160.547 278.906 C 160.439 279.034,159.344 279.625,158.113 280.219 C 156.882 280.814,155.779 281.455,155.662 281.643 C 155.481 281.936,163.131 278.131,171.273 273.878 C 173.922 272.494,174.020 272.534,175.085 275.467 C 176.708 279.935,177.023 281.373,176.776 283.171 C 176.600 284.453,176.644 284.795,176.931 284.375 C 177.793 283.115,177.222 279.660,175.414 275.195 C 175.240 274.766,174.903 273.931,174.666 273.340 C 174.099 271.926,174.511 271.809,167.169 275.469 M271.095 272.493 C 271.097 273.046,272.577 281.618,273.012 283.594 L 273.399 285.352 273.241 283.594 C 273.155 282.627,272.912 280.869,272.703 279.688 C 272.494 278.506,272.167 276.444,271.976 275.105 C 271.685 273.058,271.091 271.299,271.095 272.493 M145.176 274.743 C 145.004 275.783,144.956 276.727,145.069 276.840 C 145.396 277.167,145.778 275.204,145.627 273.973 C 145.515 273.061,145.431 273.205,145.176 274.743 M127.985 277.035 C 127.853 277.527,127.763 278.545,127.785 279.297 C 127.818 280.404,127.892 280.263,128.176 278.554 C 128.535 276.391,128.414 275.432,127.985 277.035 M144.035 281.250 C 142.731 288.977,142.633 288.906,149.414 285.163 C 150.488 284.570,152.131 283.699,153.065 283.226 C 153.999 282.754,154.673 282.277,154.562 282.166 C 154.367 281.971,146.274 286.098,145.527 286.774 C 143.800 288.337,143.377 285.766,144.582 281.023 C 144.804 280.146,144.928 278.916,144.857 278.289 C 144.780 277.618,144.442 278.838,144.035 281.250 M127.162 282.284 C 127.034 283.112,126.743 284.668,126.515 285.742 C 125.756 289.324,126.466 296.229,127.787 298.107 C 128.188 298.677,128.516 299.350,128.516 299.601 C 128.516 302.913,139.366 308.135,142.427 306.296 C 143.012 305.945,142.745 305.904,141.141 306.098 C 131.399 307.277,124.980 297.454,127.176 284.728 C 127.513 282.774,127.700 281.086,127.592 280.977 C 127.483 280.868,127.290 281.457,127.162 282.284 M175.444 287.144 C 174.167 289.814,171.892 291.671,166.517 294.433 C 159.938 297.813,158.585 298.559,158.745 298.719 C 158.823 298.797,161.475 297.526,164.640 295.896 C 172.787 291.699,174.159 290.686,175.647 287.762 C 176.175 286.725,176.553 285.727,176.487 285.544 C 176.421 285.362,175.952 286.082,175.444 287.144 M273.742 287.500 C 274.933 296.581,271.920 302.514,264.820 305.067 C 263.570 305.517,263.059 305.837,263.580 305.845 C 264.066 305.853,264.769 305.684,265.142 305.469 C 265.515 305.254,266.260 304.895,266.797 304.671 C 268.957 303.769,271.094 302.180,271.094 301.475 C 271.094 301.278,271.621 300.351,272.266 299.414 C 272.910 298.477,273.438 297.470,273.438 297.176 C 273.438 296.881,273.657 296.421,273.926 296.152 C 274.543 295.533,274.517 287.738,273.892 286.328 C 273.543 285.540,273.514 285.767,273.742 287.500 M152.056 301.985 C 148.782 303.686,146.379 305.078,146.715 305.078 C 147.557 305.078,158.203 299.433,158.203 298.986 C 158.203 298.775,158.727 298.519,152.056 301.985 M249.805 303.043 C 252.738 304.659,255.858 305.929,256.376 305.718 C 256.644 305.609,256.580 305.518,256.222 305.500 C 255.884 305.483,253.982 304.678,251.996 303.711 C 247.961 301.747,246.822 301.400,249.805 303.043 M144.336 305.469 L 143.164 305.767 144.215 305.813 C 144.793 305.839,145.375 305.684,145.508 305.469 C 145.641 305.254,145.695 305.099,145.629 305.124 C 145.562 305.150,144.980 305.305,144.336 305.469 M258.426 306.295 C 258.700 306.738,260.967 306.734,261.669 306.289 C 262.013 306.071,261.490 305.950,260.209 305.950 C 259.111 305.950,258.309 306.105,258.426 306.295 " stroke="none" fill="#e2b0b2" fill-rule="evenodd"></path><path id="path4" d="M157.617 183.594 C 156.650 183.840,156.821 183.895,158.594 183.911 C 159.775 183.921,161.094 183.778,161.523 183.594 C 162.533 183.160,159.323 183.160,157.617 183.594 M166.406 183.660 C 166.943 183.883,167.688 184.222,168.061 184.415 C 168.434 184.608,169.092 184.766,169.523 184.766 C 169.953 184.766,170.525 185.117,170.794 185.547 C 171.062 185.977,171.624 186.328,172.043 186.328 C 172.791 186.328,172.790 186.317,172.026 185.645 C 170.849 184.609,169.627 183.984,168.778 183.984 C 168.358 183.984,167.906 183.809,167.773 183.594 C 167.641 183.379,167.059 183.215,166.481 183.230 L 165.430 183.256 166.406 183.660 M232.617 183.594 C 232.484 183.809,232.022 183.984,231.590 183.984 C 229.041 183.984,224.513 188.832,222.651 193.555 C 222.143 194.844,221.409 196.475,221.020 197.180 C 220.631 197.885,220.313 198.688,220.313 198.966 C 220.313 199.244,219.785 200.560,219.141 201.890 C 218.496 203.221,217.969 204.455,217.969 204.634 C 217.969 204.812,217.724 205.469,217.425 206.092 C 216.870 207.251,215.792 209.731,215.234 211.133 C 214.921 211.920,214.204 213.610,213.040 216.309 C 210.620 221.915,210.131 223.152,210.278 223.298 C 210.350 223.371,210.997 222.069,211.716 220.406 C 213.784 215.623,216.034 210.461,216.635 209.121 C 216.939 208.444,217.188 207.775,217.188 207.634 C 217.188 207.494,217.552 206.554,217.997 205.545 C 218.442 204.536,219.070 203.096,219.393 202.344 C 219.716 201.592,220.217 200.449,220.508 199.805 C 220.798 199.160,221.322 197.930,221.672 197.070 C 222.022 196.211,222.538 195.068,222.820 194.531 C 223.101 193.994,223.446 193.075,223.585 192.488 C 223.725 191.901,224.328 190.846,224.925 190.144 C 225.522 189.442,226.319 188.378,226.694 187.781 C 227.070 187.183,227.548 186.799,227.755 186.927 C 227.963 187.055,228.586 186.621,229.140 185.963 C 229.694 185.304,230.486 184.766,230.899 184.766 C 231.313 184.766,231.956 184.608,232.330 184.415 C 232.703 184.222,233.447 183.883,233.984 183.660 L 234.961 183.256 233.910 183.230 C 233.332 183.215,232.750 183.379,232.617 183.594 M239.648 183.594 C 240.078 183.778,241.221 183.924,242.188 183.918 C 243.629 183.909,243.770 183.850,242.969 183.594 C 241.572 183.146,238.607 183.146,239.648 183.594 M153.125 184.449 C 146.136 187.396,143.344 191.490,141.989 200.781 C 141.670 202.970,141.183 205.959,140.813 208.008 C 140.657 208.867,140.254 209.790,139.917 210.059 C 139.366 210.498,139.372 210.547,139.977 210.547 C 140.841 210.547,140.822 210.612,141.988 203.711 C 143.351 195.649,144.083 192.752,144.957 191.961 C 145.367 191.589,145.708 191.093,145.713 190.857 C 145.727 190.245,148.762 187.109,149.341 187.109 C 149.608 187.109,150.127 186.758,150.495 186.328 C 150.863 185.898,151.576 185.547,152.080 185.547 C 152.583 185.547,153.125 185.415,153.283 185.254 C 153.442 185.093,154.130 184.755,154.813 184.502 C 155.949 184.083,155.971 184.044,155.078 184.041 C 154.541 184.039,153.662 184.223,153.125 184.449 M245.703 184.546 C 249.848 186.082,254.639 189.459,254.676 190.870 C 254.682 191.112,254.933 191.514,255.233 191.763 C 256.083 192.469,256.969 195.621,258.073 201.873 C 258.631 205.032,259.199 208.231,259.335 208.980 C 259.506 209.922,259.822 210.385,260.358 210.480 C 261.058 210.604,261.072 210.567,260.497 210.094 C 259.915 209.615,259.597 208.493,259.132 205.273 C 259.039 204.629,258.800 203.223,258.601 202.148 C 258.402 201.074,258.034 199.053,257.784 197.656 C 256.789 192.110,253.676 187.650,249.333 185.548 C 248.303 185.050,247.156 184.494,246.783 184.313 C 246.410 184.132,245.706 183.997,245.220 184.012 C 244.523 184.034,244.626 184.147,245.703 184.546 M173.047 186.618 C 173.047 186.863,173.213 187.166,173.417 187.292 C 174.294 187.834,177.734 193.585,177.734 194.509 C 177.734 194.729,178.262 195.998,178.906 197.329 C 179.551 198.659,180.078 199.877,180.078 200.034 C 180.078 200.192,180.664 201.611,181.381 203.188 C 182.098 204.765,183.007 206.846,183.403 207.813 C 183.798 208.779,184.507 210.449,184.978 211.523 C 185.449 212.598,186.233 214.405,186.721 215.539 C 187.208 216.674,187.673 217.536,187.754 217.455 C 187.904 217.305,187.325 215.802,185.772 212.305 C 185.294 211.230,184.669 209.736,184.382 208.984 C 184.094 208.232,183.712 207.450,183.531 207.246 C 183.351 207.042,183.203 206.649,183.203 206.373 C 183.203 206.098,182.676 204.783,182.031 203.453 C 181.387 202.122,180.854 200.845,180.847 200.614 C 180.840 200.384,180.313 199.145,179.675 197.862 C 179.037 196.578,178.516 195.397,178.516 195.236 C 178.516 194.495,176.431 190.509,175.152 188.807 C 173.287 186.324,173.047 186.074,173.047 186.618 M158.887 199.477 C 158.240 199.817,157.813 200.366,157.813 200.855 C 157.813 201.616,157.862 201.605,158.599 200.669 C 160.457 198.306,162.891 198.992,164.307 202.279 C 164.832 203.496,165.415 204.844,165.603 205.273 C 165.791 205.703,166.053 206.387,166.185 206.794 C 166.317 207.201,166.538 207.420,166.677 207.281 C 167.030 206.928,163.838 199.668,163.091 199.127 C 162.453 198.664,160.050 198.864,158.887 199.477 M236.867 199.707 C 236.041 200.650,235.920 200.902,234.003 205.664 C 233.311 207.383,232.378 209.624,231.931 210.643 C 231.484 211.663,231.231 212.611,231.370 212.750 C 231.509 212.889,231.733 212.670,231.869 212.263 C 232.005 211.856,232.448 210.778,232.855 209.868 C 233.261 208.957,233.594 208.039,233.594 207.829 C 233.594 207.618,233.905 206.869,234.285 206.164 C 234.666 205.459,235.217 204.180,235.510 203.320 C 237.403 197.774,242.797 198.137,243.027 203.827 C 243.080 205.139,243.102 205.166,243.257 204.113 C 243.836 200.181,239.232 197.006,236.867 199.707 M157.292 202.214 C 157.148 202.357,157.053 203.192,157.080 204.069 L 157.129 205.664 157.421 203.906 C 157.730 202.047,157.711 201.794,157.292 202.214 M243.649 207.662 C 243.762 208.712,243.918 209.644,243.997 209.733 C 244.309 210.087,244.107 206.802,243.786 206.295 C 243.577 205.964,243.523 206.496,243.649 207.662 M156.494 206.851 C 156.360 207.200,156.269 208.043,156.293 208.723 C 156.330 209.801,156.379 209.738,156.676 208.228 C 157.024 206.450,156.928 205.720,156.494 206.851 M166.813 208.036 C 166.804 208.266,167.141 209.145,167.563 209.989 C 167.984 210.833,168.328 211.260,168.327 210.938 C 168.327 210.260,166.838 207.407,166.813 208.036 M155.729 210.807 C 155.586 210.951,155.492 211.873,155.521 212.858 L 155.573 214.648 155.855 212.695 C 156.155 210.616,156.140 210.396,155.729 210.807 M244.416 212.130 C 244.539 213.085,244.702 213.940,244.780 214.030 C 245.099 214.396,244.882 211.480,244.552 210.958 C 244.321 210.592,244.273 211.006,244.416 212.130 M168.405 211.914 C 168.427 212.596,169.863 215.456,169.877 214.844 C 169.883 214.521,169.552 213.643,169.141 212.891 C 168.729 212.139,168.398 211.699,168.405 211.914 M230.186 215.098 C 229.722 216.140,228.875 218.135,228.304 219.531 C 226.502 223.942,225.851 225.509,224.598 228.453 C 223.927 230.031,223.475 231.418,223.594 231.537 C 223.713 231.655,223.920 231.420,224.054 231.013 C 224.334 230.168,227.843 221.732,228.951 219.243 C 229.356 218.332,229.688 217.414,229.688 217.204 C 229.688 216.993,230.047 216.180,230.487 215.398 C 230.926 214.615,231.228 213.801,231.157 213.590 C 231.087 213.378,230.649 214.057,230.186 215.098 M154.948 215.495 C 154.805 215.638,154.710 216.473,154.736 217.350 L 154.785 218.945 155.077 217.188 C 155.386 215.328,155.367 215.076,154.948 215.495 M245.198 216.817 C 245.320 217.773,245.484 218.628,245.562 218.717 C 245.880 219.084,245.664 216.167,245.333 215.645 C 245.102 215.279,245.054 215.693,245.198 216.817 M169.946 215.625 C 169.905 215.957,171.365 219.599,172.609 222.266 C 173.260 223.662,173.800 224.605,173.810 224.360 C 173.833 223.805,170.005 215.151,169.946 215.625 M187.891 218.445 C 187.891 218.732,188.124 219.314,188.409 219.737 C 188.693 220.161,189.346 221.563,189.859 222.852 C 190.934 225.552,192.527 228.844,192.558 228.428 C 192.569 228.272,192.082 227.042,191.475 225.693 C 190.868 224.345,190.137 222.627,189.850 221.875 C 189.563 221.123,189.180 220.341,189.000 220.137 C 188.819 219.933,188.672 219.460,188.672 219.086 C 188.672 218.712,188.496 218.297,188.281 218.164 C 188.066 218.031,187.891 218.158,187.891 218.445 M154.167 220.182 C 154.023 220.326,153.928 221.160,153.955 222.038 L 154.004 223.633 154.296 221.875 C 154.605 220.015,154.586 219.763,154.167 220.182 M245.947 221.484 C 246.265 223.672,246.486 223.984,246.478 222.233 C 246.475 221.499,246.297 220.635,246.082 220.313 C 245.810 219.903,245.769 220.256,245.947 221.484 M153.375 224.692 C 153.243 225.183,153.154 226.113,153.176 226.758 C 153.204 227.566,153.317 227.328,153.541 225.989 C 153.883 223.948,153.783 223.170,153.375 224.692 M246.570 224.609 C 246.574 225.146,246.711 226.113,246.875 226.758 L 247.173 227.930 247.180 226.758 C 247.184 226.113,247.047 225.146,246.875 224.609 L 246.562 223.633 246.570 224.609 M173.860 225.102 C 173.842 225.265,174.161 226.144,174.567 227.055 C 174.974 227.966,175.417 229.044,175.553 229.450 C 175.689 229.857,175.903 230.086,176.030 229.960 C 176.157 229.833,175.727 228.621,175.076 227.267 C 174.425 225.913,173.878 224.938,173.860 225.102 M152.594 229.379 C 152.462 229.871,152.371 230.713,152.392 231.250 C 152.414 231.825,152.569 231.515,152.769 230.493 C 153.128 228.664,153.001 227.858,152.594 229.379 M247.351 229.102 C 247.355 229.531,247.492 230.410,247.656 231.055 C 247.924 232.107,247.955 232.127,247.962 231.250 C 247.966 230.713,247.828 229.834,247.656 229.297 C 247.411 228.532,247.345 228.489,247.351 229.102 M192.578 229.133 C 192.578 229.473,194.531 234.287,195.154 235.480 C 195.459 236.065,195.699 236.258,195.701 235.918 C 195.702 235.585,195.551 235.146,195.366 234.941 C 195.180 234.737,194.537 233.296,193.937 231.738 C 192.954 229.189,192.578 228.468,192.578 229.133 M206.901 230.924 C 206.548 231.824,206.322 232.624,206.401 232.703 C 206.479 232.781,206.836 232.113,207.194 231.217 C 207.552 230.322,207.777 229.522,207.694 229.439 C 207.612 229.356,207.254 230.025,206.901 230.924 M176.261 230.859 C 177.210 233.457,178.692 236.981,178.964 237.285 C 179.147 237.489,179.297 237.962,179.297 238.336 C 179.297 238.710,179.461 239.118,179.662 239.242 C 180.299 239.636,177.055 231.171,176.318 230.514 C 176.169 230.382,176.144 230.537,176.261 230.859 M222.675 233.104 C 221.858 234.868,221.036 237.326,221.403 236.910 C 221.852 236.400,223.484 232.338,223.309 232.164 C 223.235 232.089,222.950 232.512,222.675 233.104 M151.838 233.545 C 151.687 234.270,151.582 235.325,151.605 235.889 C 151.634 236.565,151.768 236.315,151.999 235.156 C 152.192 234.189,152.297 233.135,152.232 232.813 C 152.167 232.490,151.990 232.820,151.838 233.545 M248.132 233.789 C 248.136 234.219,248.273 235.098,248.438 235.742 C 248.705 236.795,248.736 236.815,248.743 235.938 C 248.747 235.400,248.610 234.521,248.438 233.984 C 248.192 233.219,248.126 233.177,248.132 233.789 M135.268 236.133 C 135.271 237.207,135.347 237.600,135.437 237.006 C 135.526 236.413,135.524 235.534,135.431 235.053 C 135.339 234.573,135.265 235.059,135.268 236.133 M264.975 237.109 C 264.975 238.721,265.044 239.380,265.128 238.574 C 265.213 237.769,265.213 236.450,265.128 235.645 C 265.044 234.839,264.975 235.498,264.975 237.109 M195.719 236.855 C 195.710 237.037,195.956 237.741,196.265 238.418 C 196.574 239.095,197.294 240.791,197.866 242.188 C 200.008 247.418,201.236 246.695,204.164 238.480 C 204.833 236.603,204.251 237.120,203.509 239.063 C 200.851 246.018,199.930 246.444,198.022 241.602 C 196.939 238.851,195.741 236.383,195.719 236.855 M151.050 237.901 C 150.908 238.432,150.809 239.395,150.829 240.039 C 150.859 240.974,150.937 240.855,151.213 239.453 C 151.591 237.533,151.466 236.345,151.050 237.901 M220.402 238.562 C 219.658 240.550,219.487 241.190,219.778 240.899 C 220.135 240.542,221.105 237.772,220.933 237.600 C 220.865 237.531,220.625 237.964,220.402 238.562 M248.913 238.281 C 248.917 238.818,249.055 239.785,249.219 240.430 L 249.517 241.602 249.524 240.430 C 249.528 239.785,249.391 238.818,249.219 238.281 L 248.906 237.305 248.913 238.281 M134.828 240.088 C 134.794 240.544,134.673 241.511,134.560 242.236 C 134.371 243.444,134.390 243.474,134.774 242.592 C 135.004 242.062,135.125 241.095,135.042 240.443 C 134.953 239.743,134.865 239.597,134.828 240.088 M180.103 239.923 C 180.055 240.450,181.992 244.922,182.268 244.922 C 182.378 244.922,182.405 244.790,182.329 244.629 C 182.252 244.468,182.002 243.896,181.773 243.359 C 180.728 240.909,180.126 239.671,180.103 239.923 M265.308 241.211 C 265.298 241.855,265.440 242.734,265.625 243.164 L 265.961 243.945 265.942 243.164 C 265.932 242.734,265.789 241.855,265.625 241.211 L 265.327 240.039 265.308 241.211 M218.833 242.461 C 218.614 243.062,218.138 244.258,217.775 245.117 C 217.412 245.977,217.278 246.504,217.478 246.289 C 218.003 245.724,219.618 241.754,219.408 241.544 C 219.311 241.446,219.052 241.859,218.833 242.461 M150.269 242.588 C 150.127 243.120,150.026 243.994,150.045 244.531 C 150.069 245.233,150.180 245.075,150.439 243.972 C 150.835 242.280,150.683 241.040,150.269 242.588 M249.676 243.164 C 249.682 243.594,249.828 244.385,250.000 244.922 L 250.313 245.898 250.324 244.922 C 250.331 244.385,250.185 243.594,250.000 243.164 L 249.664 242.383 249.676 243.164 M134.047 244.385 C 134.013 244.841,133.892 245.808,133.779 246.533 C 133.590 247.740,133.608 247.770,133.992 246.889 C 134.223 246.359,134.344 245.392,134.261 244.740 C 134.171 244.040,134.084 243.894,134.047 244.385 M266.055 245.540 C 266.076 246.382,266.243 247.510,266.426 248.047 C 266.642 248.680,266.680 248.198,266.534 246.680 C 266.273 243.965,265.998 243.311,266.055 245.540 M182.638 245.898 C 182.789 246.328,182.999 247.078,183.105 247.564 C 183.210 248.051,183.440 248.538,183.615 248.646 C 184.022 248.897,183.420 246.770,182.819 245.830 C 182.396 245.169,182.383 245.174,182.638 245.898 M149.469 247.348 C 149.337 247.840,149.246 248.682,149.267 249.219 C 149.289 249.794,149.444 249.483,149.644 248.462 C 150.003 246.633,149.876 245.827,149.469 247.348 M250.464 247.461 C 250.475 247.891,250.617 248.770,250.781 249.414 L 251.079 250.586 251.098 249.414 C 251.109 248.770,250.966 247.891,250.781 247.461 L 250.446 246.680 250.464 247.461 M133.061 250.249 C 132.923 251.256,132.885 252.156,132.977 252.248 C 133.069 252.340,133.267 251.600,133.416 250.604 C 133.566 249.607,133.603 248.708,133.500 248.604 C 133.397 248.501,133.199 249.241,133.061 250.249 M215.727 249.923 C 213.997 253.881,212.094 258.708,212.216 258.830 C 212.296 258.910,212.950 257.528,213.669 255.757 C 214.388 253.987,215.320 251.785,215.741 250.864 C 216.162 249.943,216.435 249.117,216.347 249.029 C 216.259 248.942,215.981 249.344,215.727 249.923 M184.071 249.609 C 184.916 251.959,187.271 257.391,187.391 257.271 C 187.560 257.101,184.476 249.564,184.103 249.237 C 183.969 249.120,183.955 249.287,184.071 249.609 M266.889 250.000 C 266.889 250.537,267.023 251.504,267.188 252.148 C 267.453 253.194,267.486 253.215,267.486 252.344 C 267.486 251.807,267.352 250.840,267.188 250.195 C 266.922 249.150,266.889 249.129,266.889 250.000 M148.615 252.131 C 148.466 253.127,148.431 254.030,148.539 254.138 C 148.646 254.245,148.856 253.518,149.006 252.521 C 149.155 251.525,149.189 250.622,149.082 250.514 C 148.975 250.407,148.764 251.134,148.615 252.131 M251.250 251.953 C 251.250 252.490,251.390 253.369,251.563 253.906 L 251.875 254.883 251.875 253.906 C 251.875 253.369,251.735 252.490,251.563 251.953 L 251.250 250.977 251.250 251.953 M132.266 254.727 C 132.122 255.622,132.082 256.431,132.175 256.524 C 132.268 256.617,132.467 255.966,132.617 255.078 C 132.767 254.190,132.808 253.381,132.708 253.281 C 132.608 253.181,132.409 253.831,132.266 254.727 M267.843 255.664 C 267.967 256.738,268.134 257.690,268.214 257.780 C 268.489 258.088,268.281 255.663,267.950 254.688 C 267.726 254.029,267.691 254.347,267.843 255.664 M147.925 255.869 C 147.783 256.401,147.684 257.363,147.704 258.008 C 147.734 258.943,147.812 258.824,148.088 257.422 C 148.466 255.501,148.341 254.314,147.925 255.869 M252.027 256.445 C 252.037 256.875,252.180 257.754,252.344 258.398 L 252.642 259.570 252.661 258.398 C 252.671 257.754,252.528 256.875,252.344 256.445 L 252.008 255.664 252.027 256.445 M131.484 259.414 C 131.341 260.309,131.300 261.118,131.394 261.211 C 131.487 261.305,131.686 260.654,131.836 259.766 C 131.986 258.877,132.027 258.069,131.927 257.968 C 131.827 257.868,131.628 258.519,131.484 259.414 M147.053 261.506 C 146.903 262.502,146.869 263.405,146.976 263.513 C 147.084 263.620,147.294 262.893,147.443 261.896 C 147.593 260.900,147.627 259.997,147.520 259.889 C 147.412 259.782,147.202 260.509,147.053 261.506 M210.981 261.372 C 210.740 262.062,210.612 262.695,210.695 262.779 C 210.779 262.862,211.044 262.366,211.285 261.675 C 211.525 260.985,211.654 260.352,211.570 260.268 C 211.487 260.185,211.222 260.681,210.981 261.372 M252.801 261.133 C 252.807 261.563,252.953 262.354,253.125 262.891 L 253.438 263.867 253.449 262.891 C 253.456 262.354,253.310 261.563,253.125 261.133 L 252.789 260.352 252.801 261.133 M130.703 264.102 C 130.560 264.997,130.519 265.806,130.612 265.899 C 130.706 265.992,130.905 265.341,131.055 264.453 C 131.205 263.565,131.246 262.756,131.145 262.656 C 131.045 262.556,130.846 263.206,130.703 264.102 M190.091 264.453 C 190.223 264.990,190.571 265.957,190.865 266.602 C 191.293 267.543,191.351 267.581,191.159 266.797 C 191.027 266.260,190.679 265.293,190.385 264.648 C 189.957 263.707,189.899 263.669,190.091 264.453 M146.289 266.406 C 146.139 267.295,146.098 268.103,146.198 268.203 C 146.298 268.304,146.497 267.653,146.641 266.758 C 146.784 265.863,146.825 265.054,146.731 264.961 C 146.638 264.867,146.439 265.518,146.289 266.406 M253.594 265.625 C 253.594 266.162,253.734 267.041,253.906 267.578 L 254.219 268.555 254.219 267.578 C 254.219 267.041,254.078 266.162,253.906 265.625 L 253.594 264.648 253.594 265.625 M130.137 267.236 C 130.104 267.800,129.991 268.855,129.884 269.580 L 129.690 270.898 130.101 269.587 C 130.328 268.866,130.441 267.812,130.354 267.244 L 130.195 266.211 130.137 267.236 M269.991 267.773 C 269.978 268.203,270.112 269.258,270.290 270.117 C 270.562 271.431,270.613 271.493,270.612 270.508 C 270.610 269.140,270.027 266.572,269.991 267.773 M145.588 269.873 C 145.437 270.598,145.332 271.653,145.355 272.217 C 145.384 272.893,145.518 272.643,145.749 271.484 C 145.942 270.518,146.047 269.463,145.982 269.141 C 145.917 268.818,145.740 269.148,145.588 269.873 M192.021 269.531 C 192.164 270.068,192.445 270.771,192.644 271.094 C 192.896 271.501,192.926 271.382,192.745 270.703 C 192.601 270.166,192.321 269.463,192.122 269.141 C 191.870 268.733,191.839 268.853,192.021 269.531 M254.389 269.727 C 254.389 270.371,254.523 271.426,254.688 272.070 L 254.986 273.242 254.986 272.070 C 254.986 271.426,254.852 270.371,254.688 269.727 L 254.389 268.555 254.389 269.727 M129.134 273.079 C 128.987 274.186,128.946 275.170,129.042 275.266 C 129.138 275.362,129.341 274.539,129.492 273.438 C 129.644 272.336,129.685 271.352,129.584 271.251 C 129.483 271.150,129.281 271.973,129.134 273.079 M206.901 272.721 C 206.548 273.621,206.322 274.421,206.401 274.500 C 206.479 274.578,206.836 273.909,207.194 273.014 C 207.552 272.119,207.777 271.319,207.694 271.236 C 207.612 271.153,207.254 271.822,206.901 272.721 M270.772 272.461 C 270.759 272.891,270.894 273.945,271.071 274.805 C 271.343 276.118,271.394 276.181,271.393 275.195 C 271.392 273.827,270.808 271.260,270.772 272.461 M226.160 273.459 C 225.924 273.901,225.816 274.472,225.920 274.729 C 226.040 275.023,226.124 274.980,226.147 274.609 C 226.240 273.137,226.787 272.946,228.463 273.801 C 229.351 274.254,230.078 274.537,230.078 274.430 C 230.078 274.233,227.153 272.656,226.787 272.656 C 226.679 272.656,226.397 273.018,226.160 273.459 M144.800 274.229 C 144.658 274.760,144.559 275.723,144.579 276.367 C 144.609 277.302,144.687 277.183,144.963 275.781 C 145.341 273.861,145.216 272.673,144.800 274.229 M255.147 274.023 C 255.134 274.453,255.269 275.508,255.446 276.367 C 255.718 277.681,255.769 277.743,255.768 276.758 C 255.767 275.390,255.183 272.822,255.147 274.023 M167.480 275.806 C 166.245 276.444,165.234 277.053,165.234 277.160 C 165.234 277.267,166.289 276.823,167.578 276.172 C 168.867 275.521,169.922 274.903,169.922 274.799 C 169.922 274.539,169.994 274.509,167.480 275.806 M230.469 274.770 C 230.469 274.858,231.875 275.654,233.594 276.539 C 237.562 278.582,237.690 278.326,233.759 276.206 C 230.809 274.614,230.469 274.466,230.469 274.770 M194.169 275.195 C 194.166 275.738,195.674 278.809,195.690 278.292 C 195.697 278.062,195.359 277.183,194.937 276.339 C 194.516 275.495,194.171 274.980,194.169 275.195 M205.301 276.606 C 204.366 278.725,201.530 280.607,199.698 280.323 C 198.950 280.207,198.514 280.277,198.647 280.492 C 199.701 282.197,204.773 279.225,205.909 276.237 C 206.521 274.627,206.047 274.915,205.301 276.606 M128.320 277.734 C 128.169 278.836,128.127 279.820,128.228 279.921 C 128.329 280.022,128.532 279.199,128.678 278.092 C 128.825 276.986,128.867 276.002,128.771 275.906 C 128.674 275.810,128.472 276.633,128.320 277.734 M175.015 275.903 C 174.992 276.378,176.237 280.078,176.420 280.078 C 176.506 280.078,176.458 279.595,176.311 279.004 C 175.998 277.742,175.037 275.443,175.015 275.903 M144.019 278.916 C 143.877 279.448,143.776 280.322,143.795 280.859 C 143.819 281.561,143.930 281.403,144.189 280.300 C 144.585 278.608,144.433 277.368,144.019 278.916 M161.020 279.092 C 159.145 280.083,158.412 280.659,159.582 280.223 C 160.362 279.932,162.950 278.559,163.249 278.278 C 163.675 277.877,162.528 278.296,161.020 279.092 M255.945 278.906 C 255.949 279.443,256.086 280.410,256.250 281.055 L 256.548 282.227 256.555 281.055 C 256.559 280.410,256.422 279.443,256.250 278.906 L 255.937 277.930 255.945 278.906 M196.094 278.803 C 196.094 279.184,197.670 280.195,197.902 279.963 C 197.995 279.870,197.626 279.502,197.083 279.145 C 196.539 278.789,196.094 278.635,196.094 278.803 M271.966 279.688 C 271.966 280.439,272.046 280.747,272.144 280.371 C 272.243 279.995,272.243 279.380,272.144 279.004 C 272.046 278.628,271.966 278.936,271.966 279.688 M240.267 279.841 C 240.706 280.254,243.470 281.660,243.596 281.534 C 243.675 281.455,243.023 281.007,242.146 280.539 C 240.693 279.763,239.854 279.451,240.267 279.841 M127.539 282.422 C 127.388 283.524,127.346 284.508,127.447 284.608 C 127.548 284.709,127.750 283.886,127.897 282.780 C 128.044 281.673,128.085 280.690,127.989 280.593 C 127.893 280.497,127.691 281.320,127.539 282.422 M176.661 281.836 C 176.665 282.695,176.745 283.001,176.839 282.515 C 176.932 282.029,176.929 281.326,176.831 280.952 C 176.733 280.579,176.657 280.977,176.661 281.836 M223.544 282.422 C 223.544 283.389,223.620 283.784,223.713 283.301 C 223.806 282.817,223.806 282.026,223.713 281.543 C 223.620 281.060,223.544 281.455,223.544 282.422 M272.351 281.836 C 272.355 282.266,272.492 283.145,272.656 283.789 C 272.924 284.842,272.955 284.862,272.962 283.984 C 272.966 283.447,272.828 282.568,272.656 282.031 C 272.411 281.266,272.345 281.224,272.351 281.836 M244.158 281.946 C 244.177 282.256,253.125 286.843,253.125 286.543 C 253.125 286.352,246.098 282.455,244.836 281.946 C 244.454 281.792,244.148 281.792,244.158 281.946 M143.213 283.252 C 142.481 286.911,143.157 288.901,144.800 287.928 C 145.424 287.559,145.392 287.521,144.531 287.603 C 143.565 287.694,143.555 287.667,143.633 284.863 C 143.718 281.800,143.596 281.335,143.213 283.252 M154.473 282.366 C 154.269 282.549,152.344 283.624,150.195 284.753 C 148.047 285.883,146.113 286.984,145.898 287.201 C 145.349 287.756,154.378 283.116,155.008 282.520 C 155.579 281.980,155.065 281.832,154.473 282.366 M256.918 285.254 C 257.163 288.175,256.976 288.366,254.922 287.295 C 254.300 286.971,253.722 286.773,253.639 286.856 C 253.336 287.159,256.321 288.338,256.863 288.129 C 257.482 287.892,257.574 285.264,257.021 283.594 C 256.823 282.996,256.783 283.639,256.918 285.254 M175.916 285.156 C 175.691 286.002,175.642 286.609,175.809 286.506 C 176.155 286.293,176.717 284.009,176.482 283.773 C 176.396 283.688,176.142 284.310,175.916 285.156 M273.116 285.742 C 273.103 286.172,273.237 287.227,273.415 288.086 C 273.687 289.400,273.738 289.462,273.737 288.477 C 273.735 287.108,273.152 284.541,273.116 285.742 M126.653 288.281 C 126.653 289.033,126.734 289.341,126.832 288.965 C 126.930 288.589,126.930 287.974,126.832 287.598 C 126.734 287.222,126.653 287.529,126.653 288.281 M225.711 288.547 C 227.054 290.474,229.040 291.833,234.961 294.879 C 237.969 296.427,240.089 297.421,239.673 297.090 C 239.257 296.758,236.724 295.387,234.045 294.044 C 230.400 292.216,228.630 291.061,227.010 289.453 C 225.622 288.077,225.156 287.751,225.711 288.547 M172.772 290.190 C 171.869 291.007,169.317 292.576,167.101 293.678 C 164.884 294.779,162.723 295.956,162.297 296.294 C 161.872 296.631,163.698 295.810,166.357 294.470 C 170.177 292.543,175.676 288.701,174.609 288.703 C 174.502 288.704,173.675 289.372,172.772 290.190 M273.949 291.992 C 273.951 293.281,274.024 293.762,274.111 293.059 C 274.198 292.357,274.196 291.303,274.107 290.716 C 274.018 290.129,273.947 290.703,273.949 291.992 M126.590 292.025 C 126.605 292.866,126.767 293.906,126.949 294.336 C 127.156 294.822,127.199 294.306,127.062 292.969 C 126.800 290.396,126.552 289.899,126.590 292.025 M127.377 295.820 C 127.343 296.539,128.376 298.828,128.735 298.828 C 128.844 298.828,128.728 298.443,128.476 297.972 C 128.224 297.501,127.881 296.666,127.714 296.117 C 127.512 295.452,127.400 295.353,127.377 295.820 M272.147 298.247 C 271.789 298.996,271.578 299.609,271.676 299.609 C 271.943 299.609,273.129 297.218,272.950 297.039 C 272.866 296.954,272.504 297.498,272.147 298.247 M240.625 297.862 C 240.625 298.052,242.811 299.219,243.168 299.219 C 243.298 299.219,243.308 299.060,243.188 298.867 C 242.958 298.494,240.625 297.580,240.625 297.862 M151.493 301.892 C 148.769 303.317,146.600 304.543,146.673 304.616 C 146.797 304.740,155.381 300.431,156.641 299.612 C 158.336 298.509,155.865 299.604,151.493 301.892 M269.905 301.660 C 269.180 302.573,268.895 303.072,269.272 302.769 C 269.983 302.198,271.657 300.000,271.381 300.000 C 271.295 300.000,270.631 300.747,269.905 301.660 M247.081 301.302 C 247.946 301.887,249.219 302.401,249.219 302.165 C 249.219 301.989,246.873 300.781,246.533 300.781 C 246.411 300.781,246.657 301.016,247.081 301.302 M132.422 303.524 C 134.841 305.574,139.430 306.641,142.383 305.839 C 143.182 305.622,142.854 305.588,141.350 305.730 C 138.565 305.994,135.098 305.048,133.128 303.487 C 131.243 301.992,130.651 302.023,132.422 303.524 M253.213 304.281 C 254.249 304.949,257.091 305.882,256.838 305.471 C 256.714 305.271,256.047 304.944,255.357 304.744 C 254.667 304.545,253.750 304.261,253.320 304.114 C 252.630 303.878,252.617 303.898,253.213 304.281 " stroke="none" fill="#f39969" fill-rule="evenodd"></path></g></svg>